# xmcd CD database file
#
# Track frame offsets:
#	187
#	40095
#	70425
#	105932
#	137447
#	168445
#	206990
#	237860
#	277512
#	282587
#
# Disc length: 3925 seconds
#
# Revision: 0
# Processed by: cddbd v1.4PL0 Copyright (c) Steve Scherf et al.
# Submitted via: CDex 1.50
#
DISCID=8a0f530a
DTITLE=Thelonius Monk - Artistry in Jazz
DYEAR=1900
DGENRE=Jazz
TTITLE0=Pannonica
TTITLE1='Round Midnight
TTITLE2=Monk's Mood
TTITLE3=Straight No Chaser
TTITLE4=I Mean You
TTITLE5=Blue Monk
TTITLE6=Rhythm-a-ning
TTITLE7=Evidence
TTITLE8=Epistrophy
TTITLE9=Pannonica-Opening
EXTD=
EXTT0=
EXTT1=
EXTT2=
EXTT3=
EXTT4=
EXTT5=
EXTT6=
EXTT7=
EXTT8=
EXTT9=
PLAYORDER=
